<svg xmlns="http://www.w3.org/2000/svg" width="43.952" height="43.952"><path d="M21.976 0C9.841 0 0 9.84 0 21.976c0 12.135 9.84 21.976 21.976 21.976 12.135 0 21.976-9.84 21.976-21.976C43.952 9.841 34.112 0 21.976 0ZM34.52 27.179c-.06 1.343-.275 2.26-.586 3.063a6.452 6.452 0 0 1-3.691 3.69c-.802.313-1.72.526-3.063.587-1.346.062-1.775.076-5.203.076-3.427 0-3.856-.014-5.202-.076-1.343-.061-2.261-.274-3.063-.586a6.182 6.182 0 0 1-2.236-1.456 6.185 6.185 0 0 1-1.455-2.235c-.312-.802-.525-1.72-.587-3.063-.062-1.346-.076-1.776-.076-5.203 0-3.427.014-3.857.076-5.202.061-1.344.274-2.26.586-3.064a6.182 6.182 0 0 1 1.456-2.235 6.181 6.181 0 0 1 2.235-1.455c.803-.312 1.72-.525 3.064-.587 1.345-.061 1.775-.076 5.202-.076s3.857.015 5.203.076c1.343.062 2.26.275 3.063.586a6.186 6.186 0 0 1 2.235 1.456 6.183 6.183 0 0 1 1.456 2.235c.312.803.525 1.72.586 3.064.062 1.345.076 1.775.076 5.202s-.014 3.857-.076 5.203Zm0 0" fill="#f8f8f8" fill-rule="evenodd" data-name="Path 21"/></svg>