<svg xmlns="http://www.w3.org/2000/svg" width="20.691" height="20.691" viewBox="11.631 11.631 20.691 20.691"><path d="M31.813 14.534a3.91 3.91 0 0 0-.944-1.451 3.907 3.907 0 0 0-1.45-.944c-.445-.173-1.113-.378-2.344-.434-1.33-.061-1.73-.074-5.099-.074-3.37 0-3.769.013-5.1.073-1.23.057-1.898.262-2.342.435a3.904 3.904 0 0 0-1.451.944c-.42.407-.742.903-.944 1.45-.173.446-.379 1.114-.435 2.344-.06 1.33-.073 1.73-.073 5.1 0 3.369.013 3.768.073 5.099.056 1.23.262 1.898.435 2.343.202.548.524 1.044.944 1.45.407.42.902.743 1.45.945.445.173 1.113.378 2.344.434 1.33.061 1.73.074 5.099.074 3.37 0 3.769-.013 5.1-.074 1.23-.056 1.898-.261 2.342-.434a4.179 4.179 0 0 0 2.395-2.395c.173-.445.379-1.113.435-2.343.06-1.331.073-1.73.073-5.1 0-3.37-.012-3.768-.073-5.099-.056-1.23-.262-1.898-.435-2.343Zm-9.837 13.922a6.48 6.48 0 1 1 0-12.96 6.48 6.48 0 0 1 0 12.96Zm6.736-11.702a1.514 1.514 0 1 1 0-3.028 1.514 1.514 0 0 1 0 3.028Zm0 0" fill="#f8f8f8" fill-rule="evenodd" data-name="Path 20"/></svg>